<svg width="388" height="675" viewBox="0 0 388 675" fill="none" xmlns="http://www.w3.org/2000/svg">
<g clip-path="url(#clip0_96647_3824)">
<rect x="278.8" y="-197.6" width="304" height="329.6" rx="9.6" stroke="white" stroke-width="0.8" stroke-dasharray="12 12"/>
<path d="M420.5 479H245.4C240.429 479 236.4 483.029 236.4 488V488V516V516C236.4 521.247 232.147 525.5 226.9 525.5H180.5V525.5C176.358 525.5 173 528.858 173 533V708.2" stroke="white" stroke-width="0.4"/>
<path d="M300 543.5H351V543.5C355.971 543.5 360 539.471 360 534.5L360 386.7V293.2V180V180C360 175.306 356.194 171.5 351.5 171.5H340.5L36 171.5V171.5C30.201 171.5 25.5 166.799 25.5 161V114.5" stroke="white" stroke-width="0.8"/>
<circle cx="297.5" cy="543.5" r="3.5" fill="white"/>
<circle cx="25.5" cy="114.5" r="3.5" fill="white"/>
<path d="M360 77.5L360 240.5L360 428C360 433.799 355.299 438.5 349.5 438.5V438.5L35 438.5V438.5C30.5817 438.5 27 442.082 27 446.5V453V573.5" stroke="white" stroke-width="0.8"/>
<circle cx="27" cy="575" r="3" fill="white"/>
<circle cx="360" cy="76" r="3" fill="white"/>
<path d="M81 50.4C78.7228 50.4 76.5505 50.8533 74.5691 51.675L74.7223 52.0445C70.7135 53.7069 67.5069 56.9135 65.8445 60.9223L65.475 60.7691C64.6533 62.7505 64.2 64.9228 64.2 67.2V73.4208H64.6V85.8625H64.2V98.3042H64.6V110.746H64.2V123.188H64.6V135.629H64.2V148.071H64.6V160.513H64.2V172.954H64.6V185.396H64.2V197.837H64.6V210.279H64.2V216.5C64.2 218.493 63.8031 220.393 63.0845 222.125L63.4539 222.278C61.9229 225.967 58.9699 228.917 55.279 230.445L55.126 230.075C53.3935 230.792 51.4937 231.187 49.5004 231.185L43.3279 231.179L43.3275 231.579L30.9826 231.567L30.983 231.167L18.638 231.155L18.6376 231.555L6.29268 231.543L6.29308 231.143L-6.05186 231.13L-6.05226 231.53L-18.3972 231.518L-18.3968 231.118L-30.7418 231.106L-30.7422 231.506L-43.0871 231.494L-43.0867 231.094L-55.4317 231.082L-55.4321 231.482L-67.777 231.47L-67.7766 231.07L-80.1216 231.058L-80.122 231.458L-92.4669 231.445L-92.4665 231.045L-98.639 231.039C-100.391 231.038 -102.117 230.922 -103.808 230.7L-103.86 231.097C-107.385 230.634 -110.765 229.712 -113.939 228.393L-113.785 228.023C-117.001 226.687 -120.003 224.939 -122.726 222.844L-122.97 223.161C-125.738 221.032 -128.219 218.548 -130.346 215.778L-130.029 215.534C-132.12 212.81 -133.866 209.806 -135.199 206.589L-135.568 206.742C-136.884 203.567 -137.803 200.186 -138.262 196.66L-137.866 196.609C-138.086 194.917 -138.2 193.192 -138.2 191.439V185.334H-138.6V173.123H-138.2V160.912H-138.6V148.701H-138.2V136.49H-138.6V124.28H-138.2V112.069H-138.6V99.8578H-138.2V87.6469H-138.6V75.4361H-138.2V63.2252H-138.6V51.0143H-138.2V38.8034H-138.6V26.5925H-138.2V14.3817H-138.6V2.1708H-138.2V-10.0401H-138.6V-22.251H-138.2V-34.4618H-138.6V-46.6727H-138.2V-58.8836H-138.6V-71.0945H-138.2V-77.1999C-138.2 -78.9532 -138.086 -80.6798 -137.865 -82.3725L-138.262 -82.4243C-137.802 -85.9518 -136.882 -89.3349 -135.565 -92.5114L-135.195 -92.3582C-133.86 -95.5774 -132.113 -98.5825 -130.019 -101.308L-130.336 -101.551C-128.207 -104.322 -125.722 -106.806 -122.951 -108.936L-122.708 -108.619C-119.983 -110.713 -116.977 -112.46 -113.758 -113.795L-113.911 -114.165C-110.735 -115.482 -107.352 -116.402 -103.824 -116.862L-103.773 -116.465C-102.08 -116.686 -100.353 -116.8 -98.6 -116.8H-92.8V-117.2H-81.2V-116.8H-69.6V-117.2H-58V-116.8H-46.4V-117.2H-34.8V-116.8H-23.2V-117.2H-11.6V-116.8H1.52588e-05V-117.2H11.6V-116.8H23.2V-117.2H34.8V-116.8H46.4V-117.2H58V-116.8H69.6V-117.2H81.2V-116.8H87C88.7534 -116.8 90.4799 -116.686 92.1727 -116.465L92.2244 -116.862C95.7519 -116.402 99.135 -115.482 102.312 -114.165L102.158 -113.795C105.377 -112.46 108.383 -110.713 111.108 -108.619L111.351 -108.936C114.122 -106.807 116.607 -104.322 118.736 -101.551L118.419 -101.308C120.513 -98.5825 122.26 -95.5774 123.595 -92.3582L123.965 -92.5115C125.282 -89.3349 126.202 -85.9518 126.662 -82.4243L126.265 -82.3726C126.486 -80.6798 126.6 -78.9533 126.6 -77.2V-71.375H127V-59.725H126.6V-48.075H127V-36.425H126.6V-24.775H127V-13.125H126.6V-1.47499H127V10.175H126.6V21.825H127V33.475H126.6V39.3C126.6 40.8058 126.3 42.2406 125.758 43.5489L126.127 43.7021C124.962 46.5132 122.713 48.7617 119.902 49.9274L119.749 49.5579C118.441 50.1004 117.006 50.4 115.5 50.4H106.875V50.8H89.625V50.4H81Z" stroke="white" stroke-width="0.8" stroke-dasharray="12 12"/>
<rect x="-56.7585" y="514.241" width="183.517" height="198.971" rx="9.75853" stroke="white" stroke-width="0.48294" stroke-dasharray="7.24 7.24"/>
</g>
<defs>
<clipPath id="clip0_96647_3824">
<rect width="388" height="675" fill="white"/>
</clipPath>
</defs>
</svg>
