<svg width="1440" height="594" viewBox="0 0 1440 594" fill="none" xmlns="http://www.w3.org/2000/svg">
<g clip-path="url(#clip0_96651_3869)">
<path d="M1798 396H1232.82C1220.18 396 1209.93 406.248 1209.93 418.89V418.89V513.627C1209.93 526.361 1199.61 536.684 1186.87 536.684V536.684H1124.05V536.684C1112.98 536.684 1104 545.661 1104 556.734V654.144" stroke="white" stroke-width="1.33667"/>
<rect x="1027.5" y="39.5" width="652" height="408" rx="14.5" stroke="white" stroke-dasharray="15 15"/>
<path d="M195.58 88.5H196.283V108.5H195.58V128.5H196.283V148.5H195.58V168.5H196.283V188.5H195.58V208.5H196.283V228.5H195.58V248.5H196.283V268.5H195.58V288.5H196.283V308.5H195.58V328.5H196.283V348.5H195.58V358.5C195.58 361.177 195.047 363.728 194.083 366.054L194.732 366.323C192.661 371.319 188.665 375.315 183.669 377.387L183.399 376.737C181.074 377.702 178.523 378.234 175.846 378.234H164.741V378.938H142.531V378.234H120.322V378.938H98.1122V378.234H75.9027V378.938H53.6932V378.234H31.4837V378.938H9.27415V378.234H-12.9354V378.938H-35.1449V378.234H-57.3544V378.938H-79.5639V378.234H-90.6687C-93.7516 378.234 -96.7873 378.034 -99.7636 377.646L-99.8546 378.343C-106.057 377.534 -112.005 375.917 -117.591 373.601L-117.321 372.951C-122.981 370.604 -128.265 367.531 -133.057 363.849L-133.485 364.407C-138.358 360.663 -142.725 356.295 -146.47 351.423L-145.912 350.994C-149.594 346.203 -152.666 340.919 -155.014 335.259L-155.663 335.528C-157.979 329.943 -159.597 323.995 -160.406 317.792L-159.708 317.701C-160.096 314.725 -160.297 311.689 -160.297 308.606V297.873H-161V276.406H-160.297V254.939H-161V233.472H-160.297V212.005H-161V190.538H-160.297V169.07H-161V147.603H-160.297V126.136H-161V104.669H-160.297V83.2023H-161V61.7353H-160.297V40.2682H-161V18.8012H-160.297V-2.66586H-161V-24.1329H-160.297V-45.6H-161V-67.067H-160.297V-88.534H-161V-110.001H-160.297V-131.468H-161V-152.935H-160.297V-163.669C-160.297 -166.752 -160.096 -169.787 -159.708 -172.764L-160.406 -172.855C-159.596 -179.057 -157.979 -185.005 -155.663 -190.591L-155.014 -190.321C-152.666 -195.981 -149.594 -201.265 -145.912 -206.057L-146.47 -206.485C-142.725 -211.358 -138.358 -215.725 -133.485 -219.47L-133.057 -218.912C-128.265 -222.594 -122.981 -225.666 -117.321 -228.014L-117.591 -228.663C-112.005 -230.979 -106.057 -232.596 -99.8546 -233.406L-99.7636 -232.708C-96.7873 -233.096 -93.7515 -233.297 -90.6687 -233.297H-80.4707V-234H-60.0746V-233.297H-39.6785V-234H-19.2824V-233.297H1.11371V-234H21.5098V-233.297H41.9059V-234H62.302V-233.297H82.698V-234H103.094V-233.297H123.49V-234H143.886V-233.297H164.282V-234H184.678V-233.297H205.075V-234H225.471V-233.297H235.669C238.752 -233.297 241.787 -233.096 244.764 -232.708L244.855 -233.406C251.057 -232.596 257.005 -230.979 262.591 -228.663L262.321 -228.014C267.981 -225.666 273.265 -222.594 278.057 -218.912L278.485 -219.47C283.357 -215.725 287.725 -211.357 291.47 -206.485L290.912 -206.057C294.594 -201.265 297.666 -195.981 300.014 -190.321L300.663 -190.591C302.979 -185.005 304.596 -179.057 305.406 -172.855L304.708 -172.764C305.096 -169.787 305.297 -166.752 305.297 -163.669V-153.141H306V-132.085H305.297V-111.029H306V-89.9726H305.297V-68.9166H306V-47.8605H305.297V-26.8045H306V-5.74849H305.297V15.3075H306V36.3636H305.297V46.8916C305.297 48.7636 304.924 50.5468 304.25 52.1726L304.9 52.442C303.43 55.9864 300.595 58.8215 297.05 60.2913L296.781 59.6416C295.155 60.3158 293.372 60.6883 291.5 60.6883H281.736V61.3916H262.209V60.6883H242.682V61.3916H223.155V60.6883H213.392C210.978 60.6883 208.674 61.1688 206.573 62.0401L206.843 62.6898C202.661 64.424 199.315 67.7691 197.581 71.9511L196.932 71.6817C196.06 73.7828 195.58 76.0862 195.58 78.5V88.5Z" stroke="white" stroke-width="1.40663" stroke-dasharray="21.1 21.1"/>
<path d="M314.827 915.549H-25.8274C-65.2886 915.549 -97.2783 883.559 -97.2783 844.098V522.208C-97.2783 511.446 -88.5538 502.722 -77.7917 502.722H324.21H335.63C363.602 502.722 386.278 525.398 386.278 553.37V844.098C386.278 883.559 354.289 915.549 314.827 915.549Z" stroke="white" stroke-width="1.44345"/>
<path d="M1160 85.5H1084.5C1078.15 85.5 1073 80.3513 1073 74V74V64V5C1073 -22.6142 1050.61 -45 1023 -45L148.5 -45V-45C131.103 -45 117 -30.897 117 -13.5V48.5V546" stroke="white"/>
<circle cx="117" cy="552" r="7" fill="white"/>
<circle cx="1160" cy="85" r="7" fill="white"/>
<path d="M433.5 635L1429 635V635C1442.81 635 1454 623.807 1454 610V570" stroke="white"/>
<path d="M308.792 569.5H1207.5" stroke="white"/>
<circle cx="1207" cy="569" r="7" fill="white"/>
<circle cx="305" cy="570" r="7" fill="white"/>
</g>
<defs>
<clipPath id="clip0_96651_3869">
<rect width="1440" height="594" fill="white"/>
</clipPath>
</defs>
</svg>
