<svg width="1440" height="594" viewBox="0 0 1440 594" fill="none" xmlns="http://www.w3.org/2000/svg">
<g clip-path="url(#clip0_96651_3869)">
<path d="M1798 396H1224.93C1216.65 396 1209.93 402.716 1209.93 411V411V523.253C1209.93 530.671 1203.92 536.684 1196.5 536.684V536.684H1115.5V536.684C1109.15 536.684 1104 541.833 1104 548.184V654.144" stroke="white" stroke-width="1.33667"/>
<rect x="1027.5" y="54.5" width="652" height="393" rx="14.5" stroke="white" stroke-dasharray="15 15"/>
<path d="M167.58 119.5H168.283V139.5H167.58V159.5H168.283V179.5H167.58V199.5H168.283V219.5H167.58V239.5H168.283V259.5H167.58V279.5H168.283V299.5H167.58V319.5H168.283V339.5H167.58V359.5H168.283V379.5H167.58V389.5C167.58 392.177 167.047 394.728 166.083 397.054L166.732 397.323C164.661 402.319 160.665 406.315 155.669 408.387L155.399 407.737C153.074 408.702 150.523 409.234 147.846 409.234H136.741V409.938H114.531V409.234H92.3217V409.938H70.1122V409.234H47.9027V409.938H25.6932V409.234H3.48366V409.938H-18.7258V409.234H-40.9354V409.938H-63.1449V409.234H-85.3544V409.938H-107.564V409.234H-118.669C-121.752 409.234 -124.787 409.034 -127.764 408.646L-127.855 409.343C-134.057 408.534 -140.005 406.917 -145.591 404.601L-145.321 403.951C-150.981 401.604 -156.265 398.531 -161.057 394.849L-161.485 395.407C-166.358 391.663 -170.725 387.295 -174.47 382.423L-173.912 381.994C-177.594 377.203 -180.666 371.919 -183.014 366.259L-183.663 366.528C-185.979 360.943 -187.597 354.995 -188.406 348.792L-187.708 348.701C-188.096 345.725 -188.297 342.689 -188.297 339.606V328.873H-189V307.406H-188.297V285.939H-189V264.472H-188.297V243.005H-189V221.538H-188.297V200.07H-189V178.603H-188.297V157.136H-189V135.669H-188.297V114.202H-189V92.7353H-188.297V71.2682H-189V49.8012H-188.297V28.3341H-189V6.8671H-188.297V-14.6H-189V-36.067H-188.297V-57.534H-189V-79.0011H-188.297V-100.468H-189V-121.935H-188.297V-132.669C-188.297 -135.752 -188.096 -138.787 -187.708 -141.764L-188.406 -141.855C-187.596 -148.057 -185.979 -154.005 -183.663 -159.591L-183.014 -159.321C-180.666 -164.981 -177.594 -170.265 -173.912 -175.057L-174.47 -175.485C-170.725 -180.358 -166.358 -184.725 -161.485 -188.47L-161.057 -187.912C-156.265 -191.594 -150.981 -194.666 -145.321 -197.014L-145.591 -197.663C-140.005 -199.979 -134.057 -201.596 -127.855 -202.406L-127.764 -201.708C-124.787 -202.096 -121.752 -202.297 -118.669 -202.297H-108.471V-203H-88.0746V-202.297H-67.6785V-203H-47.2824V-202.297H-26.8863V-203H-6.49022V-202.297H13.9059V-203H34.302V-202.297H54.698V-203H75.0941V-202.297H95.4902V-203H115.886V-202.297H136.282V-203H156.678V-202.297H177.075V-203H197.471V-202.297H207.669C210.752 -202.297 213.787 -202.096 216.764 -201.708L216.855 -202.406C223.057 -201.596 229.005 -199.979 234.591 -197.663L234.321 -197.014C239.981 -194.666 245.265 -191.594 250.057 -187.912L250.485 -188.47C255.357 -184.725 259.725 -180.357 263.47 -175.485L262.912 -175.057C266.594 -170.265 269.666 -164.981 272.014 -159.321L272.663 -159.591C274.979 -154.005 276.596 -148.057 277.406 -141.855L276.708 -141.764C277.096 -138.787 277.297 -135.752 277.297 -132.669V-122.141H278V-101.085H277.297V-80.0286H278V-58.9726H277.297V-37.9166H278V-16.8605H277.297V4.19548H278V25.2515H277.297V46.3075H278V67.3636H277.297V77.8916C277.297 79.7636 276.924 81.5468 276.25 83.1726L276.9 83.442C275.43 86.9864 272.595 89.8215 269.05 91.2913L268.781 90.6416C267.155 91.3158 265.372 91.6883 263.5 91.6883H253.736V92.3916H234.209V91.6883H214.682V92.3916H195.155V91.6883H185.392C182.978 91.6883 180.674 92.1688 178.573 93.0401L178.843 93.6898C174.661 95.424 171.315 98.7691 169.581 102.951L168.932 102.682C168.06 104.783 167.58 107.086 167.58 109.5V119.5Z" stroke="white" stroke-width="1.40663" stroke-dasharray="21.1 21.1"/>
<path d="M314.827 915.549H-25.8274C-65.2886 915.549 -97.2783 883.559 -97.2783 844.098V522.208C-97.2783 511.446 -88.5538 502.722 -77.7917 502.722H361H363.5C376.08 502.722 386.278 512.92 386.278 525.5V844.098C386.278 883.559 354.289 915.549 314.827 915.549Z" stroke="white" stroke-width="1.44345"/>
<path d="M1307.5 189.5H1172V189.5C1165.92 189.5 1161 184.575 1161 178.5V89.5V42V42C1161 37.0294 1156.97 33 1152 33L139.5 33V33C131.492 33 125 39.4919 125 47.5V556.5" stroke="white"/>
<circle cx="125" cy="550" r="7" fill="white"/>
<circle cx="1308" cy="189" r="7" fill="white"/>
<path d="M433.5 635L1429 635V635C1442.81 635 1454 623.807 1454 610V570" stroke="white"/>
<path d="M308.792 569.5H1207.5" stroke="white"/>
<circle cx="1207" cy="569" r="7" fill="white"/>
<circle cx="305" cy="570" r="7" fill="white"/>
</g>
<defs>
<clipPath id="clip0_96651_3869">
<rect width="1440" height="594" fill="white"/>
</clipPath>
</defs>
</svg>
